<svg xmlns="http://www.w3.org/2000/svg" version="1.1" xmlns:xlink="http://www.w3.org/1999/xlink" xmlns:svgjs="http://svgjs.dev/svgjs" viewBox="0 0 2400 800"><g fill="hsl(205, 69%, 50%)" transform="matrix(1,0,0,1,7.6488037109375,337.3365240097046)"><path d="M-10,10C54.58333333333333,14.166666666666668,172.91666666666666,38.541666666666664,300,30C427.08333333333337,21.458333333333336,475,-28.5,600,-31C725,-33.5,775,17.583333333333332,900,18C1025,18.416666666666668,1075,-31.083333333333332,1200,-29C1325,-26.916666666666668,1375,24.458333333333332,1500,28C1625,31.541666666666668,1675,-14.5,1800,-12C1925,-9.5,1975,42.083333333333336,2100,40C2225,37.916666666666664,2285.4166666666665,-97,2400,-22C2514.5833333333335,53,3254.1666666666665,207.91666666666669,2650,400C2045.8333333333335,592.0833333333333,156.25,795.8333333333334,-500,900" transform="matrix(1,0,0,1,0,35)" opacity="NaN"></path></g><defs><linearGradient x1="50%" y1="0%" x2="50%" y2="100%" id="sssurf-grad"><stop stop-color="hsl(208, 77%, 50%)" stop-opacity="1" offset="0%"></stop><stop stop-color="hsl(208, 74%, 93%)" stop-opacity="1" offset="100%"></stop></linearGradient></defs></svg>